<svg width="1599" height="746" viewBox="0 0 1599 746" fill="none" xmlns="http://www.w3.org/2000/svg">
<rect width="1599" height="746" rx="14" fill="#343943"/>
<mask id="mask0_315_244" style="mask-type:alpha" maskUnits="userSpaceOnUse" x="0" y="0" width="1599" height="746">
<rect width="1599" height="746" rx="14" fill="#343943"/>
</mask>
<g mask="url(#mask0_315_244)">
<path d="M314.492 785.72L307.276 785.497L-34.377 774.939L-41.0781 774.732L-41.1611 768.029L-44.999 457.086L-45.0977 449.137L-37.1992 450.046C-2.4826 454.041 46.4915 465.771 79.3252 488.566C95.8235 500.021 108.976 514.783 113.46 533.455C117.986 552.301 113.322 573.588 97.3584 597.198C82.3899 619.337 77.3592 634.702 77.6201 644.954C77.7463 649.909 79.1026 653.661 81.2031 656.614C83.3411 659.619 86.5149 662.164 90.7852 664.217C99.4959 668.404 111.858 670.108 125.711 669.89C139.373 669.674 153.758 667.604 166.064 664.844C212.147 652.727 242.174 654.755 264.547 670.506C286.267 685.798 299.163 713.167 313.887 746.221L314.492 747.581V785.72Z" fill="#3E4555" stroke="#3E4555" stroke-width="14"/>
<path d="M167.696 671.653C258.691 647.685 277.625 682.02 307.492 749.069V778.5L-34.1612 767.943L-38 457C30.5653 464.891 152.469 503.194 91.5596 593.278C30.6506 683.362 116.938 683.063 167.696 671.653Z" fill="#3E4555" stroke="#C9D0E0" stroke-width="3"/>
<path d="M1298.5 443C1335.92 580.904 1326.89 647.448 1250.5 744.5L1243 769L1633.5 783.5L1641.5 -27.5H1570C1565.67 2.66667 1521.1 64.3 1377.5 69.5C1233.9 74.7 1265 320.667 1298.5 443Z" fill="#495165" stroke="#C9D0E0" stroke-width="4"/>
<mask id="path-6-inside-1_315_244" fill="white">
<path d="M-10 -30H1634V87H-10V-30Z"/>
</mask>
<path d="M-10 -30H1634V87H-10V-30Z" fill="#9B87D5"/>
<path d="M1634 87V75H-10V87V99H1634V87Z" fill="#D0C0FF" mask="url(#path-6-inside-1_315_244)"/>
<rect width="14.1868" height="14.1869" rx="3" transform="matrix(0.707107 -0.707107 0.707104 0.707109 1559.37 38.9031)" fill="#EBEEF6"/>
<rect width="14.1868" height="14.1869" rx="3" transform="matrix(0.707107 -0.707107 0.707104 0.707109 1537.09 38.9028)" fill="#EBEEF6"/>
<mask id="path-10-inside-2_315_244" fill="white">
<rect width="14.1868" height="14.1869" rx="3" transform="matrix(0.707107 -0.707107 0.707104 0.707109 1548.26 27.8531)"/>
</mask>
<rect width="14.1868" height="14.1869" rx="3" transform="matrix(0.707107 -0.707107 0.707104 0.707109 1548.26 27.8531)" stroke="#EBEEF6" stroke-width="8" mask="url(#path-10-inside-2_315_244)"/>
<mask id="path-11-inside-3_315_244" fill="white">
<rect width="14.1868" height="14.1869" rx="3" transform="matrix(0.707107 -0.707107 0.707104 0.707109 1548.26 50.2472)"/>
</mask>
<rect width="14.1868" height="14.1869" rx="3" transform="matrix(0.707107 -0.707107 0.707104 0.707109 1548.26 50.2472)" stroke="#EBEEF6" stroke-width="8" mask="url(#path-11-inside-3_315_244)"/>
</g>
</svg>
