<svg width="1124" height="74" viewBox="0 0 1124 74" fill="none" xmlns="http://www.w3.org/2000/svg">
<path d="M712.456 36.4313L723.944 48.0367L735.55 36.5485L724.061 24.943L712.456 36.4313ZM724.003 36.4899L723.993 38.4898L1123.99 40.5203L1124 38.5203L1124.01 36.5203L724.013 34.4899L724.003 36.4899Z" fill="url(#paint0_linear_59_33)"/>
<path d="M411.552 35.4313L400.064 47.0367L388.458 35.5485L399.946 23.943L411.552 35.4313ZM400.005 35.4899L400.015 37.4898L0.0203069 39.5203L0.0101547 37.5203L2.57045e-06 35.5203L399.995 33.4899L400.005 35.4899Z" fill="url(#paint1_linear_59_33)"/>
<path d="M438.021 55V53.05C439.721 52.9833 440.988 52.85 441.821 52.65C442.654 52.4167 443.204 52.0167 443.471 51.45C443.738 50.85 443.871 49.95 443.871 48.75V25.85C443.871 24.65 443.738 23.7667 443.471 23.2C443.204 22.6 442.654 22.1833 441.821 21.95C440.988 21.7167 439.721 21.5833 438.021 21.55V19.6C441.554 19.7 447.188 19.75 454.921 19.75C456.154 19.75 457.371 19.75 458.571 19.75C459.804 19.75 460.971 19.7333 462.071 19.7C463.204 19.6667 464.238 19.6333 465.171 19.6C465.171 21.4667 465.238 23.3 465.371 25.1C465.538 26.8667 465.771 28.5833 466.071 30.25H464.071C463.571 28.0167 463.004 26.2833 462.371 25.05C461.738 23.8167 460.938 22.95 459.971 22.45C459.004 21.95 457.754 21.7 456.221 21.7H448.921V48.75C448.921 49.9833 449.088 50.9 449.421 51.5C449.754 52.0667 450.471 52.45 451.571 52.65C452.671 52.85 454.338 52.9833 456.571 53.05V55C455.604 54.9667 454.254 54.9333 452.521 54.9C450.788 54.8667 448.771 54.85 446.471 54.85C444.638 54.85 443.004 54.8667 441.571 54.9C440.138 54.9 438.954 54.9333 438.021 55ZM447.321 38.65V36.7H456.771V38.65H447.321ZM458.271 46C458.104 44.1333 457.838 42.6667 457.471 41.6C457.104 40.5333 456.554 39.7833 455.821 39.35C455.088 38.8833 454.104 38.65 452.871 38.65V36.7C454.571 36.7 455.804 36.2167 456.571 35.25C457.371 34.2833 457.888 32.65 458.121 30.35H459.871C459.738 32.2833 459.671 33.7833 459.671 34.85C459.704 35.8833 459.721 36.8333 459.721 37.7C459.721 38.4 459.721 39.1167 459.721 39.85C459.754 40.55 459.788 41.3833 459.821 42.35C459.888 43.3167 459.954 44.5333 460.021 46H458.271ZM471.14 55V53.05C472.84 52.9833 474.107 52.85 474.94 52.65C475.774 52.45 476.324 52.05 476.59 51.45C476.857 50.85 476.99 49.95 476.99 48.75V25.85C476.99 24.65 476.857 23.7667 476.59 23.2C476.324 22.6 475.774 22.1833 474.94 21.95C474.107 21.7167 472.84 21.5833 471.14 21.55V19.6C472.907 19.6333 475.207 19.6667 478.04 19.7C480.907 19.7333 484.257 19.75 488.09 19.75C489.29 19.75 490.49 19.75 491.69 19.75C492.924 19.75 494.09 19.7333 495.19 19.7C496.324 19.6667 497.357 19.6333 498.29 19.6C498.29 21.2333 498.357 22.8667 498.49 24.5C498.657 26.1 498.857 27.7 499.09 29.3H497.09C496.624 27.3333 496.074 25.8 495.44 24.7C494.84 23.5667 494.057 22.7833 493.09 22.35C492.124 21.9167 490.874 21.7 489.34 21.7H482.04V48.85C482.04 49.9833 482.14 50.85 482.34 51.45C482.54 52.05 482.94 52.45 483.54 52.65C484.174 52.8167 485.107 52.9 486.34 52.9H488.44C490.574 52.9 492.29 52.6333 493.59 52.1C494.89 51.5333 495.957 50.5167 496.79 49.05C497.657 47.5833 498.474 45.5 499.24 42.8H501.24C500.974 44.8 500.774 46.8167 500.64 48.85C500.507 50.85 500.44 52.9 500.44 55C498.874 54.9333 497.074 54.9 495.04 54.9C493.04 54.8667 490.707 54.85 488.04 54.85C484.24 54.85 480.907 54.8667 478.04 54.9C475.207 54.9 472.907 54.9333 471.14 55ZM480.44 38.15V36.25H489.24V38.15H480.44ZM491.39 44.55C491.224 42.9167 490.957 41.65 490.59 40.75C490.224 39.8167 489.674 39.15 488.94 38.75C488.207 38.35 487.224 38.15 485.99 38.15V36.25C487.69 36.25 488.924 35.7667 489.69 34.8C490.49 33.8 491.007 32.15 491.24 29.85H492.99C492.857 31.8167 492.79 33.3167 492.79 34.35C492.824 35.3833 492.84 36.3333 492.84 37.2C492.84 37.9333 492.84 38.65 492.84 39.35C492.874 40.0167 492.907 40.7667 492.94 41.6C493.007 42.4 493.074 43.3833 493.14 44.55H491.39ZM505.05 55V53.05C506.183 52.9833 507.133 52.75 507.9 52.35C508.7 51.95 509.4 51.3333 510 50.5C510.633 49.6333 511.217 48.5167 511.75 47.15L523.2 19.25H525L537.2 48.9C537.833 50.4 538.6 51.4667 539.5 52.1C540.433 52.7 541.783 53.0167 543.55 53.05V55C542.717 54.9333 541.633 54.9 540.3 54.9C538.967 54.8667 537.433 54.85 535.7 54.85C533.733 54.85 532.017 54.8667 530.55 54.9C529.117 54.9 528 54.9333 527.2 55V53.05C528.933 53.0167 530.2 52.8833 531 52.65C531.833 52.3833 532.3 51.9667 532.4 51.4C532.5 50.8 532.317 49.9333 531.85 48.8L522.2 25.25L523.1 24.45L514.55 45.45C513.817 47.2167 513.467 48.65 513.5 49.75C513.533 50.85 514 51.6667 514.9 52.2C515.833 52.7 517.233 52.9833 519.1 53.05V55C518.2 54.9667 517.3 54.95 516.4 54.95C515.5 54.9167 514.6 54.9 513.7 54.9C512.833 54.8667 511.95 54.85 511.05 54.85C510.05 54.85 509.067 54.8667 508.1 54.9C507.133 54.9 506.117 54.9333 505.05 55ZM514.5 42.75L515.3 40.8H531.2L531.95 42.75H514.5ZM548.926 55V53.05C550.926 52.9833 552.409 52.8333 553.376 52.6C554.376 52.3667 555.042 51.9167 555.376 51.25C555.709 50.5833 555.876 49.6 555.876 48.3V21.7H553.126C551.659 21.7 550.442 21.9833 549.476 22.55C548.542 23.0833 547.759 24.0333 547.126 25.4C546.492 26.7667 545.926 28.6833 545.426 31.15H543.426C543.759 29.0833 543.992 27.1167 544.126 25.25C544.292 23.35 544.376 21.4667 544.376 19.6C545.742 19.6333 547.209 19.6667 548.776 19.7C550.376 19.7333 552.009 19.75 553.676 19.75C555.342 19.75 556.926 19.75 558.426 19.75C559.759 19.75 561.242 19.75 562.876 19.75C564.542 19.75 566.192 19.7333 567.826 19.7C569.492 19.6667 571.009 19.6333 572.376 19.6C572.409 21.4333 572.492 23.3167 572.626 25.25C572.792 27.15 573.042 29.1167 573.376 31.15H571.326C570.959 29.2833 570.542 27.75 570.076 26.55C569.642 25.3167 569.126 24.35 568.526 23.65C567.959 22.9167 567.276 22.4167 566.476 22.15C565.709 21.85 564.776 21.7 563.676 21.7H560.926V48.3C560.926 49.6 561.092 50.5833 561.426 51.25C561.759 51.9167 562.409 52.3667 563.376 52.6C564.376 52.8333 565.876 52.9833 567.876 53.05V55C566.842 54.9333 565.476 54.9 563.776 54.9C562.109 54.8667 560.326 54.85 558.426 54.85C556.392 54.85 554.542 54.8667 552.876 54.9C551.209 54.9 549.892 54.9333 548.926 55ZM595.305 55.7C592.472 55.7 590.105 55.1833 588.205 54.15C586.339 53.1167 584.939 51.55 584.005 49.45C583.072 47.35 582.605 44.7333 582.605 41.6V25.85C582.605 24.65 582.455 23.7667 582.155 23.2C581.889 22.6 581.339 22.1833 580.505 21.95C579.672 21.7167 578.405 21.5833 576.705 21.55V19.6C578.239 19.7 581.039 19.75 585.105 19.75C588.839 19.75 591.455 19.7 592.955 19.6V21.55C591.422 21.5833 590.272 21.7167 589.505 21.95C588.772 22.1833 588.272 22.6 588.005 23.2C587.772 23.7667 587.655 24.65 587.655 25.85V40.9C587.655 45.3333 588.339 48.5167 589.705 50.45C591.072 52.3833 593.322 53.35 596.455 53.35C599.655 53.35 602.022 52.3 603.555 50.2C605.089 48.0667 605.855 44.8167 605.855 40.45V26.25C605.855 24.9833 605.722 24.0333 605.455 23.4C605.189 22.7333 604.672 22.2667 603.905 22C603.139 21.7333 602.005 21.5833 600.505 21.55V19.6C601.072 19.6333 601.855 19.6667 602.855 19.7C603.889 19.7333 605.122 19.75 606.555 19.75C608.355 19.75 609.855 19.7333 611.055 19.7C612.255 19.6667 613.155 19.6333 613.755 19.6V21.55C612.122 21.5833 610.889 21.75 610.055 22.05C609.222 22.3167 608.655 22.8 608.355 23.5C608.055 24.1667 607.905 25.15 607.905 26.45V40.65C607.905 45.7167 606.872 49.5 604.805 52C602.739 54.4667 599.572 55.7 595.305 55.7ZM618.209 55V53.05C619.909 52.9833 621.175 52.85 622.009 52.65C622.842 52.4167 623.392 52 623.659 51.4C623.925 50.8 624.059 49.9167 624.059 48.75V25.85C624.059 24.65 623.925 23.7667 623.659 23.2C623.392 22.6 622.842 22.1833 622.009 21.95C621.175 21.7167 619.909 21.5833 618.209 21.55V19.6C618.942 19.6333 619.975 19.6667 621.309 19.7C622.642 19.7 624.259 19.7 626.159 19.7C627.059 19.7 627.925 19.7 628.759 19.7C629.592 19.7 630.359 19.7 631.059 19.7C631.792 19.6667 632.442 19.65 633.009 19.65C633.575 19.6167 634.025 19.6 634.359 19.6C638.392 19.6 641.542 20.4 643.809 22C646.075 23.6 647.209 25.8 647.209 28.6C647.209 30.5333 646.625 32.2333 645.459 33.7C644.292 35.1333 642.659 36.25 640.559 37.05C638.492 37.85 636.059 38.25 633.259 38.25H626.809V36.75H633.059C636.059 36.75 638.275 36.1333 639.709 34.9C641.142 33.6333 641.859 31.7167 641.859 29.15C641.859 26.5833 641.142 24.6833 639.709 23.45C638.275 22.1833 636.092 21.55 633.159 21.55H629.109V48.75C629.109 49.9167 629.242 50.8 629.509 51.4C629.809 52 630.375 52.4167 631.209 52.65C632.042 52.85 633.309 52.9833 635.009 53.05V55C633.475 54.9 630.675 54.85 626.609 54.85C622.609 54.85 619.809 54.9 618.209 55ZM647.359 55.7C645.792 55.7 644.525 55.2667 643.559 54.4C642.625 53.5 641.942 52.0833 641.509 50.15L640.159 44.4C639.825 42.9 639.392 41.75 638.859 40.95C638.325 40.1167 637.625 39.5333 636.759 39.2C635.925 38.8333 634.792 38.65 633.359 38.65H627.109V37.35H632.859C635.725 37.35 637.992 37.5833 639.659 38.05C641.325 38.4833 642.592 39.2833 643.459 40.45C644.359 41.5833 645.059 43.2167 645.559 45.35L646.559 49.25C646.859 50.5167 647.225 51.4167 647.659 51.95C648.092 52.45 648.692 52.7 649.459 52.7C649.892 52.7 650.292 52.6 650.659 52.4C651.059 52.1667 651.492 51.7833 651.959 51.25L653.059 52.55C652.259 53.65 651.409 54.45 650.509 54.95C649.609 55.45 648.559 55.7 647.359 55.7ZM655.808 55V53.05C657.508 52.9833 658.775 52.85 659.608 52.65C660.442 52.45 660.992 52.05 661.258 51.45C661.525 50.85 661.658 49.95 661.658 48.75V25.85C661.658 24.65 661.525 23.7667 661.258 23.2C660.992 22.6 660.442 22.1833 659.608 21.95C658.775 21.7167 657.508 21.5833 655.808 21.55V19.6C657.575 19.6333 659.875 19.6667 662.708 19.7C665.575 19.7333 668.925 19.75 672.758 19.75C673.958 19.75 675.158 19.75 676.358 19.75C677.592 19.75 678.758 19.7333 679.858 19.7C680.992 19.6667 682.025 19.6333 682.958 19.6C682.958 21.2333 683.025 22.8667 683.158 24.5C683.325 26.1 683.525 27.7 683.758 29.3H681.758C681.292 27.3333 680.742 25.8 680.108 24.7C679.508 23.5667 678.725 22.7833 677.758 22.35C676.792 21.9167 675.542 21.7 674.008 21.7H666.708V48.85C666.708 49.9833 666.808 50.85 667.008 51.45C667.208 52.05 667.608 52.45 668.208 52.65C668.842 52.8167 669.775 52.9 671.008 52.9H673.108C675.242 52.9 676.958 52.6333 678.258 52.1C679.558 51.5333 680.625 50.5167 681.458 49.05C682.325 47.5833 683.142 45.5 683.908 42.8H685.908C685.642 44.8 685.442 46.8167 685.308 48.85C685.175 50.85 685.108 52.9 685.108 55C683.542 54.9333 681.742 54.9 679.708 54.9C677.708 54.8667 675.375 54.85 672.708 54.85C668.908 54.85 665.575 54.8667 662.708 54.9C659.875 54.9 657.575 54.9333 655.808 55ZM665.108 38.15V36.25H673.908V38.15H665.108ZM676.058 44.55C675.892 42.9167 675.625 41.65 675.258 40.75C674.892 39.8167 674.342 39.15 673.608 38.75C672.875 38.35 671.892 38.15 670.658 38.15V36.25C672.358 36.25 673.592 35.7667 674.358 34.8C675.158 33.8 675.675 32.15 675.908 29.85H677.658C677.525 31.8167 677.458 33.3167 677.458 34.35C677.492 35.3833 677.508 36.3333 677.508 37.2C677.508 37.9333 677.508 38.65 677.508 39.35C677.542 40.0167 677.575 40.7667 677.608 41.6C677.675 42.4 677.742 43.3833 677.808 44.55H676.058Z" fill="white"/>
<defs>
<linearGradient id="paint0_linear_59_33" x1="724" y1="36.9899" x2="1123.99" y2="39.0203" gradientUnits="userSpaceOnUse">
<stop stop-color="white"/>
<stop offset="1" stop-color="white" stop-opacity="0"/>
</linearGradient>
<linearGradient id="paint1_linear_59_33" x1="400.008" y1="35.9899" x2="0.0126928" y2="38.0203" gradientUnits="userSpaceOnUse">
<stop stop-color="white"/>
<stop offset="1" stop-color="white" stop-opacity="0"/>
</linearGradient>
</defs>
</svg>
