<svg width="686" height="74" viewBox="0 0 686 74" fill="none" xmlns="http://www.w3.org/2000/svg">
<path d="M474.461 36.4313L485.949 48.0367L497.555 36.5485L486.067 24.943L474.461 36.4313ZM486.008 36.4899L485.998 38.4898L684.998 39.5L685.008 37.5L685.018 35.5L486.018 34.4899L486.008 36.4899Z" fill="url(#paint0_linear_37_26)"/>
<path d="M210.557 35.4313L199.069 47.0367L187.463 35.5485L198.952 23.943L210.557 35.4313ZM199.01 35.4899L199.02 37.4898L0.0203284 38.5L0.0101762 36.5L2.40605e-05 34.5L199 33.4899L199.01 35.4899Z" fill="url(#paint1_linear_37_26)"/>
<path d="M246.773 55V53.05C247.907 52.9833 248.857 52.75 249.623 52.35C250.423 51.95 251.123 51.3333 251.723 50.5C252.357 49.6333 252.94 48.5167 253.473 47.15L264.923 19.25H266.723L278.923 48.9C279.557 50.4 280.323 51.4667 281.223 52.1C282.157 52.7 283.507 53.0167 285.273 53.05V55C284.44 54.9333 283.357 54.9 282.023 54.9C280.69 54.8667 279.157 54.85 277.423 54.85C275.457 54.85 273.74 54.8667 272.273 54.9C270.84 54.9 269.723 54.9333 268.923 55V53.05C270.657 53.0167 271.923 52.8833 272.723 52.65C273.557 52.3833 274.023 51.9667 274.123 51.4C274.223 50.8 274.04 49.9333 273.573 48.8L263.923 25.25L264.823 24.45L256.273 45.45C255.54 47.2167 255.19 48.65 255.223 49.75C255.257 50.85 255.723 51.6667 256.623 52.2C257.557 52.7 258.957 52.9833 260.823 53.05V55C259.923 54.9667 259.023 54.95 258.123 54.95C257.223 54.9167 256.323 54.9 255.423 54.9C254.557 54.8667 253.673 54.85 252.773 54.85C251.773 54.85 250.79 54.8667 249.823 54.9C248.857 54.9 247.84 54.9333 246.773 55ZM256.223 42.75L257.023 40.8H272.923L273.673 42.75H256.223ZM288.365 55V53.05C290.065 52.9833 291.332 52.85 292.165 52.65C292.999 52.45 293.549 52.05 293.815 51.45C294.082 50.85 294.215 49.95 294.215 48.75V25.85C294.215 24.65 294.082 23.7667 293.815 23.2C293.549 22.6 292.999 22.1833 292.165 21.95C291.332 21.7167 290.065 21.5833 288.365 21.55V19.6C289.065 19.6333 290.099 19.6667 291.465 19.7C292.832 19.7 294.465 19.7 296.365 19.7C298.165 19.7 299.815 19.6833 301.315 19.65C302.815 19.6167 303.882 19.6 304.515 19.6C308.082 19.6 310.849 20.3167 312.815 21.75C314.815 23.1833 315.815 25.2 315.815 27.8C315.815 29.9 315.099 31.6833 313.665 33.15C312.232 34.5833 310.232 35.6 307.665 36.2V36.25C311.232 36.6167 313.932 37.55 315.765 39.05C317.632 40.55 318.565 42.5667 318.565 45.1C318.565 48.1667 317.415 50.5833 315.115 52.35C312.815 54.1167 309.649 55 305.615 55C305.082 55 304.365 54.9833 303.465 54.95C302.599 54.9167 301.565 54.9 300.365 54.9C299.199 54.8667 297.882 54.85 296.415 54.85C294.482 54.85 292.815 54.8667 291.415 54.9C290.049 54.9 289.032 54.9333 288.365 55ZM303.415 52.95C306.682 52.95 309.115 52.2833 310.715 50.95C312.349 49.6167 313.165 47.6 313.165 44.9C313.165 42.4333 312.399 40.6 310.865 39.4C309.365 38.1667 307.082 37.55 304.015 37.55H298.215V35.7H302.965C305.499 35.7 307.399 35.0833 308.665 33.85C309.965 32.5833 310.615 30.7667 310.615 28.4C310.615 26.0333 310.015 24.3 308.815 23.2C307.649 22.0667 305.815 21.5167 303.315 21.55H299.265V48.8C299.265 49.9667 299.365 50.85 299.565 51.45C299.765 52.05 300.165 52.45 300.765 52.65C301.365 52.85 302.249 52.95 303.415 52.95ZM342.315 55.7C338.881 55.7 335.898 54.9833 333.365 53.55C330.831 52.0833 328.865 50 327.465 47.3C326.065 44.5667 325.365 41.3167 325.365 37.55C325.365 33.8167 326.081 30.55 327.515 27.75C328.948 24.95 330.931 22.7833 333.465 21.25C336.031 19.6833 338.998 18.9 342.365 18.9C345.765 18.9 348.731 19.6333 351.265 21.1C353.831 22.5333 355.798 24.6 357.165 27.3C358.565 30 359.265 33.25 359.265 37.05C359.265 40.7833 358.548 44.05 357.115 46.85C355.715 49.65 353.731 51.8333 351.165 53.4C348.631 54.9333 345.681 55.7 342.315 55.7ZM342.465 53.85C344.765 53.85 346.765 53.15 348.465 51.75C350.198 50.35 351.531 48.4 352.465 45.9C353.398 43.4 353.865 40.5 353.865 37.2C353.865 33.8333 353.348 30.9333 352.315 28.5C351.315 26.0333 349.931 24.1333 348.165 22.8C346.398 21.4333 344.415 20.75 342.215 20.75C339.915 20.75 337.898 21.45 336.165 22.85C334.465 24.25 333.131 26.2 332.165 28.7C331.231 31.2 330.765 34.1 330.765 37.4C330.765 40.7333 331.281 43.6333 332.315 46.1C333.348 48.5667 334.748 50.4833 336.515 51.85C338.281 53.1833 340.265 53.85 342.465 53.85ZM382.318 55.7C379.484 55.7 377.118 55.1833 375.218 54.15C373.351 53.1167 371.951 51.55 371.018 49.45C370.084 47.35 369.618 44.7333 369.618 41.6V25.85C369.618 24.65 369.468 23.7667 369.168 23.2C368.901 22.6 368.351 22.1833 367.518 21.95C366.684 21.7167 365.418 21.5833 363.718 21.55V19.6C365.251 19.7 368.051 19.75 372.118 19.75C375.851 19.75 378.468 19.7 379.968 19.6V21.55C378.434 21.5833 377.284 21.7167 376.518 21.95C375.784 22.1833 375.284 22.6 375.018 23.2C374.784 23.7667 374.668 24.65 374.668 25.85V40.9C374.668 45.3333 375.351 48.5167 376.718 50.45C378.084 52.3833 380.334 53.35 383.468 53.35C386.668 53.35 389.034 52.3 390.568 50.2C392.101 48.0667 392.868 44.8167 392.868 40.45V26.25C392.868 24.9833 392.734 24.0333 392.468 23.4C392.201 22.7333 391.684 22.2667 390.918 22C390.151 21.7333 389.018 21.5833 387.518 21.55V19.6C388.084 19.6333 388.868 19.6667 389.868 19.7C390.901 19.7333 392.134 19.75 393.568 19.75C395.368 19.75 396.868 19.7333 398.068 19.7C399.268 19.6667 400.168 19.6333 400.768 19.6V21.55C399.134 21.5833 397.901 21.75 397.068 22.05C396.234 22.3167 395.668 22.8 395.368 23.5C395.068 24.1667 394.918 25.15 394.918 26.45V40.65C394.918 45.7167 393.884 49.5 391.818 52C389.751 54.4667 386.584 55.7 382.318 55.7ZM409.563 55V53.05C411.563 52.9833 413.046 52.8333 414.013 52.6C415.013 52.3667 415.68 51.9167 416.013 51.25C416.346 50.5833 416.513 49.6 416.513 48.3V21.7H413.763C412.296 21.7 411.08 21.9833 410.113 22.55C409.18 23.0833 408.396 24.0333 407.763 25.4C407.13 26.7667 406.563 28.6833 406.063 31.15H404.063C404.396 29.0833 404.63 27.1167 404.763 25.25C404.93 23.35 405.013 21.4667 405.013 19.6C406.38 19.6333 407.846 19.6667 409.413 19.7C411.013 19.7333 412.646 19.75 414.313 19.75C415.98 19.75 417.563 19.75 419.063 19.75C420.396 19.75 421.88 19.75 423.513 19.75C425.18 19.75 426.83 19.7333 428.463 19.7C430.13 19.6667 431.646 19.6333 433.013 19.6C433.046 21.4333 433.13 23.3167 433.263 25.25C433.43 27.15 433.68 29.1167 434.013 31.15H431.963C431.596 29.2833 431.18 27.75 430.713 26.55C430.28 25.3167 429.763 24.35 429.163 23.65C428.596 22.9167 427.913 22.4167 427.113 22.15C426.346 21.85 425.413 21.7 424.313 21.7H421.563V48.3C421.563 49.6 421.73 50.5833 422.063 51.25C422.396 51.9167 423.046 52.3667 424.013 52.6C425.013 52.8333 426.513 52.9833 428.513 53.05V55C427.48 54.9333 426.113 54.9 424.413 54.9C422.746 54.8667 420.963 54.85 419.063 54.85C417.03 54.85 415.18 54.8667 413.513 54.9C411.846 54.9 410.53 54.9333 409.563 55Z" fill="white"/>
<defs>
<linearGradient id="paint0_linear_37_26" x1="486.005" y1="36.9899" x2="685.005" y2="38" gradientUnits="userSpaceOnUse">
<stop stop-color="white"/>
<stop offset="1" stop-color="white" stop-opacity="0"/>
</linearGradient>
<linearGradient id="paint1_linear_37_26" x1="199.013" y1="35.9899" x2="0.0127143" y2="37" gradientUnits="userSpaceOnUse">
<stop stop-color="white"/>
<stop offset="1" stop-color="white" stop-opacity="0"/>
</linearGradient>
</defs>
</svg>
