<svg width="1159" height="643" viewBox="0 0 1159 643" fill="none" xmlns="http://www.w3.org/2000/svg">
<path d="M40.3035 19.9485H1143.06V598.557C1143.06 611.535 1132.54 622.057 1119.56 622.057H16.8035V43.4485C16.8035 30.4698 27.3248 19.9485 40.3035 19.9485Z" stroke="white" stroke-width="5"/>
<path d="M45.0001 32.5H1127.5V596C1127.5 603.456 1121.46 609.5 1114 609.5H31.5001V46C31.5001 38.5442 37.5443 32.5 45.0001 32.5Z" stroke="white"/>
<rect x="17.1614" y="606" width="25.6197" height="25.6197" transform="rotate(42.0552 17.1614 606)" fill="white"/>
<rect x="17.6833" y="612" width="17.4416" height="17.4416" transform="rotate(42.0552 17.6833 612)" fill="#232C42"/>
<rect x="1139.16" width="25.6197" height="25.6197" transform="rotate(42.0552 1139.16 0)" fill="white"/>
<rect x="1139.68" y="6" width="17.4416" height="17.4416" transform="rotate(42.0552 1139.68 6)" fill="#232C42"/>
</svg>
