<svg width="1728" height="758" viewBox="0 0 1728 758" fill="none" xmlns="http://www.w3.org/2000/svg">
<path d="M0 22.5005C0 22.5005 519.579 139.5 864 139.5C1208.42 139.5 1728 22.5005 1728 22.5005V368.5H0V22.5005Z" fill="#435273"/>
<path d="M1728 2.50049L1727.78 1.5249L1729 1.25049V349.5H-1V1.25049L0.219727 1.5249L0 2.50049C0.219681 1.52492 0.221695 1.525 0.225586 1.52588C0.229509 1.52676 0.235355 1.52803 0.243164 1.52979C0.258824 1.53331 0.282213 1.53936 0.313477 1.54639C0.376388 1.56052 0.471339 1.58179 0.59668 1.60986C0.847361 1.66602 1.2225 1.7493 1.71875 1.85986C2.7116 2.08107 4.1909 2.40914 6.13477 2.8374C10.0228 3.69399 15.7709 4.95109 23.209 6.55029C38.0855 9.74877 59.723 14.3178 86.7646 19.8013C140.849 30.7684 216.548 45.3914 303.009 60.0142C475.945 89.2623 691.877 118.5 864 118.5C1036.12 118.5 1252.05 89.2623 1424.99 60.0142C1511.45 45.3914 1587.15 30.7684 1641.24 19.8013C1668.28 14.3178 1689.91 9.74877 1704.79 6.55029C1712.23 4.95109 1717.98 3.69399 1721.87 2.8374C1723.81 2.40914 1725.29 2.08107 1726.28 1.85986C1726.78 1.7493 1727.15 1.66602 1727.4 1.60986C1727.53 1.58179 1727.62 1.56052 1727.69 1.54639C1727.72 1.53936 1727.74 1.53331 1727.76 1.52979C1727.76 1.52803 1727.77 1.52676 1727.77 1.52588C1727.78 1.525 1727.78 1.52492 1728 2.50049Z" stroke="#A9B9DB" stroke-width="2"/>
<path d="M0 42.5005C0 42.5005 519.579 159.5 864 159.5C1208.42 159.5 1728 42.5005 1728 42.5005V388.5H0V42.5005Z" fill="#1E2128"/>
<rect y="221.5" width="1728" height="536" fill="#1E2128"/>
</svg>
