<svg width="1728" height="364" viewBox="0 0 1728 364" fill="none" xmlns="http://www.w3.org/2000/svg">
<path d="M0 0C0 0 519.579 117 864 117C1208.42 117 1728 0 1728 0V362.5H0V0Z" fill="#343A4B"/>
<path d="M0 18C0 18 519.579 135 864 135C1208.42 135 1728 18 1728 18V364H0V18Z" fill="#1E2128"/>
<path d="M0 44C0 44 519.579 161 864 161C1208.42 161 1728 44 1728 44" stroke="#343A4B" stroke-width="7"/>
<path d="M0 62C0 62 519.579 179 864 179C1208.42 179 1728 62 1728 62M836 178.753L863.5 200L888 178.818" stroke="#646B7D" stroke-width="3"/>
</svg>
